<svg width="26" height="25" viewBox="0 0 26 25" fill="none" xmlns="http://www.w3.org/2000/svg">
<path d="M10.1876 1.34017L10.188 1.33986C11.5897 0.214048 13.8299 0.22164 15.2504 1.35324C15.2505 1.35334 15.2506 1.35345 15.2508 1.35355L23.4339 7.90006C23.4345 7.90054 23.4351 7.90102 23.4357 7.90149C23.9279 8.30339 24.3477 8.92631 24.6172 9.63162C24.8865 10.3366 24.9894 11.0811 24.8936 11.7084L23.3197 21.127C23.3196 21.1275 23.3196 21.128 23.3195 21.1285C22.9973 22.9788 21.2031 24.5 19.3374 24.5H6.08736C4.19539 24.5 2.43989 23.0152 2.11783 21.1415C2.11777 21.1411 2.11771 21.1408 2.11765 21.1405L0.543019 11.7176L0.542825 11.7165C0.435679 11.0843 0.532534 10.338 0.801415 9.63287C1.07028 8.92782 1.49538 8.30535 1.9992 7.90336L2.00007 7.90267L10.1876 1.34017ZM12.7124 21.4375C13.501 21.4375 14.1499 20.7887 14.1499 20V16.25C14.1499 15.4614 13.501 14.8125 12.7124 14.8125C11.9237 14.8125 11.2749 15.4614 11.2749 16.25V20C11.2749 20.7887 11.9237 21.4375 12.7124 21.4375Z" fill="#FFFBFB" stroke="black"/>
</svg>
