<svg width="52" height="16" viewBox="0 0 52 16" fill="none" xmlns="http://www.w3.org/2000/svg">
<path d="M5.24 15.26C4.46667 15.26 3.72333 15.14 3.01 14.9C2.30333 14.6533 1.68333 14.3033 1.15 13.85C0.616667 13.39 0.233333 12.84 1.49012e-08 12.2L2.29 11.36C2.38333 11.6267 2.57333 11.87 2.86 12.09C3.14667 12.31 3.49667 12.4867 3.91 12.62C4.32333 12.7533 4.76667 12.82 5.24 12.82C5.72667 12.82 6.18 12.7467 6.6 12.6C7.02667 12.4467 7.37 12.2367 7.63 11.97C7.89 11.6967 8.02 11.38 8.02 11.02C8.02 10.6533 7.88333 10.3533 7.61 10.12C7.33667 9.88 6.98667 9.69 6.56 9.55C6.13333 9.41 5.69333 9.30333 5.24 9.23C4.24667 9.07667 3.35667 8.84 2.57 8.52C1.78333 8.2 1.16 7.75667 0.7 7.19C0.246667 6.62333 0.0200001 5.89 0.0200001 4.99C0.0200001 4.14333 0.263333 3.40333 0.75 2.77C1.23667 2.13667 1.87667 1.64333 2.67 1.29C3.46333 0.936666 4.32 0.76 5.24 0.76C6.00667 0.76 6.74667 0.88 7.46 1.12C8.17333 1.36 8.79667 1.71 9.33 2.17C9.87 2.63 10.2567 3.18333 10.49 3.83L8.19 4.66C8.09667 4.39333 7.90667 4.15 7.62 3.93C7.33333 3.71 6.98333 3.53667 6.57 3.41C6.15667 3.27667 5.71333 3.21 5.24 3.21C4.76667 3.20333 4.31667 3.28 3.89 3.44C3.47 3.59333 3.12667 3.80333 2.86 4.07C2.59333 4.33667 2.46 4.64333 2.46 4.99C2.46 5.43667 2.58333 5.77333 2.83 6C3.08333 6.22667 3.42 6.39333 3.84 6.5C4.26 6.6 4.72667 6.69333 5.24 6.78C6.17333 6.92667 7.03667 7.17333 7.83 7.52C8.62333 7.86667 9.26 8.33 9.74 8.91C10.22 9.48333 10.46 10.1867 10.46 11.02C10.46 11.8667 10.22 12.61 9.74 13.25C9.26 13.8833 8.62333 14.3767 7.83 14.73C7.03667 15.0833 6.17333 15.26 5.24 15.26ZM12.7391 15V-1.19209e-06H15.1791V15H12.7391ZM24.9666 5H27.4066V15H24.9666L24.8566 13.76C24.5832 14.2067 24.2199 14.57 23.7666 14.85C23.3199 15.1233 22.7899 15.26 22.1766 15.26C21.4366 15.26 20.7432 15.12 20.0966 14.84C19.4499 14.56 18.8799 14.1733 18.3866 13.68C17.8999 13.1867 17.5166 12.6167 17.2366 11.97C16.9632 11.3233 16.8266 10.63 16.8266 9.89C16.8266 9.17667 16.9566 8.50667 17.2166 7.88C17.4832 7.25333 17.8532 6.70333 18.3266 6.23C18.7999 5.75667 19.3466 5.38667 19.9666 5.12C20.5866 4.85333 21.2532 4.72 21.9666 4.72C22.6266 4.72 23.2166 4.86667 23.7366 5.16C24.2632 5.45333 24.7099 5.82667 25.0766 6.28L24.9666 5ZM22.1166 12.91C22.6366 12.91 23.0966 12.78 23.4966 12.52C23.8966 12.26 24.2099 11.91 24.4366 11.47C24.6632 11.0233 24.7766 10.5333 24.7766 10C24.7766 9.46 24.6632 8.97 24.4366 8.53C24.2099 8.08333 23.8932 7.73 23.4866 7.47C23.0866 7.21 22.6299 7.08 22.1166 7.08C21.6032 7.08 21.1332 7.21333 20.7066 7.48C20.2866 7.74 19.9499 8.09 19.6966 8.53C19.4499 8.97 19.3266 9.46 19.3266 10C19.3266 10.54 19.4532 11.03 19.7066 11.47C19.9599 11.91 20.2966 12.26 20.7166 12.52C21.1432 12.78 21.6099 12.91 22.1166 12.91ZM32.3492 15.18C31.8292 15.1467 31.3259 15.0433 30.8392 14.87C30.3592 14.69 29.9326 14.4467 29.5592 14.14C29.1859 13.8333 28.8992 13.4667 28.6992 13.04L30.7592 12.16C30.8392 12.2933 30.9692 12.4367 31.1492 12.59C31.3292 12.7367 31.5426 12.86 31.7892 12.96C32.0426 13.06 32.3192 13.11 32.6192 13.11C32.8726 13.11 33.1126 13.0767 33.3392 13.01C33.5726 12.9367 33.7592 12.8267 33.8992 12.68C34.0459 12.5333 34.1192 12.3433 34.1192 12.11C34.1192 11.8633 34.0326 11.6733 33.8592 11.54C33.6926 11.4 33.4792 11.2967 33.2192 11.23C32.9659 11.1567 32.7192 11.09 32.4792 11.03C31.8459 10.9033 31.2559 10.7067 30.7092 10.44C30.1692 10.1733 29.7326 9.83 29.3992 9.41C29.0726 8.98333 28.9092 8.47 28.9092 7.87C28.9092 7.21 29.0826 6.64 29.4292 6.16C29.7826 5.68 30.2392 5.31 30.7992 5.05C31.3659 4.79 31.9759 4.66 32.6292 4.66C33.4226 4.66 34.1492 4.82667 34.8092 5.16C35.4759 5.48667 36.0026 5.95 36.3892 6.55L34.4592 7.69C34.3659 7.53 34.2359 7.38333 34.0692 7.25C33.9026 7.11 33.7126 6.99667 33.4992 6.91C33.2859 6.81667 33.0626 6.76333 32.8292 6.75C32.5292 6.73667 32.2559 6.76333 32.0092 6.83C31.7626 6.89667 31.5626 7.01 31.4092 7.17C31.2626 7.33 31.1892 7.54333 31.1892 7.81C31.1892 8.06333 31.2892 8.25333 31.4892 8.38C31.6892 8.5 31.9292 8.59333 32.2092 8.66C32.4959 8.72667 32.7692 8.8 33.0292 8.88C33.6159 9.07333 34.1659 9.31 34.6792 9.59C35.1992 9.87 35.6159 10.2133 35.9292 10.62C36.2426 11.0267 36.3926 11.5133 36.3792 12.08C36.3792 12.7267 36.1859 13.2933 35.7992 13.78C35.4126 14.26 34.9126 14.6267 34.2992 14.88C33.6926 15.1333 33.0426 15.2333 32.3492 15.18ZM47.2506 8.68V15H44.8106V9.32C44.8106 8.92667 44.714 8.57 44.5206 8.25C44.3273 7.92333 44.0673 7.66667 43.7406 7.48C43.4206 7.28667 43.064 7.19 42.6706 7.19C42.2773 7.19 41.9173 7.28667 41.5906 7.48C41.2706 7.66667 41.014 7.92333 40.8206 8.25C40.634 8.57 40.5406 8.92667 40.5406 9.32V15H38.1006L38.0906 -1.19209e-06H40.5306L40.5406 5.89C40.8806 5.53 41.2873 5.24667 41.7606 5.04C42.234 4.82667 42.744 4.72 43.2906 4.72C44.0173 4.72 44.6806 4.9 45.2806 5.26C45.8806 5.61333 46.3573 6.09 46.7106 6.69C47.0706 7.28333 47.2506 7.94667 47.2506 8.68ZM50.093 15.26C49.7463 15.26 49.4496 15.14 49.203 14.9C48.963 14.6533 48.843 14.3533 48.843 14C48.843 13.66 48.963 13.3667 49.203 13.12C49.4496 12.8733 49.7463 12.75 50.093 12.75C50.4396 12.75 50.7363 12.8733 50.983 13.12C51.2296 13.3667 51.353 13.66 51.353 14C51.353 14.3533 51.2296 14.6533 50.983 14.9C50.7363 15.14 50.4396 15.26 50.093 15.26Z" fill="#292929"/>
</svg>
